<svg xmlns="http://www.w3.org/2000/svg" xmlns:xlink="http://www.w3.org/1999/xlink" width="400" zoomAndPan="magnify" viewBox="0 0 300 299.999988" height="400" preserveAspectRatio="xMidYMid meet" version="1.0"><defs><g/><clipPath id="a5c9e59f23"><rect x="0" width="250" y="0" height="82"/></clipPath></defs><g transform="matrix(1, 0, 0, 1, 25, 105)"><g clip-path="url(#a5c9e59f23)"><g fill="#fff1d0" fill-opacity="1"><g transform="translate(1.215912, 61.386406)"><g><path d="M 3.5 -21.109375 C 2.46875 -24.960938 2.222656 -28.78125 2.765625 -32.5625 C 3.304688 -36.351562 4.507812 -39.847656 6.375 -43.046875 C 8.238281 -46.242188 10.660156 -49.019531 13.640625 -51.375 C 16.617188 -53.726562 20.03125 -55.421875 23.875 -56.453125 C 26.632812 -57.203125 29.394531 -57.523438 32.15625 -57.421875 C 34.925781 -57.316406 37.59375 -56.859375 40.15625 -56.046875 C 42.726562 -55.234375 45.140625 -54.082031 47.390625 -52.59375 C 49.640625 -51.101562 51.628906 -49.328125 53.359375 -47.265625 L 51.40625 -40.125 L 50.6875 -40.125 C 49.4375 -42.613281 47.890625 -44.976562 46.046875 -47.21875 C 44.210938 -49.46875 42.15625 -51.347656 39.875 -52.859375 C 37.601562 -54.378906 35.125 -55.4375 32.4375 -56.03125 C 29.757812 -56.632812 26.960938 -56.554688 24.046875 -55.796875 C 21.441406 -55.085938 19.164062 -53.945312 17.21875 -52.375 C 15.269531 -50.8125 13.644531 -48.988281 12.34375 -46.90625 C 11.039062 -44.820312 10.035156 -42.535156 9.328125 -40.046875 C 8.628906 -37.554688 8.253906 -35.035156 8.203125 -32.484375 L 9.828125 -32.484375 C 13.078125 -32.484375 16.3125 -32.628906 19.53125 -32.921875 C 22.75 -33.222656 25.660156 -33.59375 28.265625 -34.03125 C 31.296875 -34.46875 34.21875 -34.984375 37.03125 -35.578125 L 37.765625 -35.578125 L 37.765625 -28.671875 L 37.03125 -28.671875 C 34.21875 -29.210938 31.296875 -29.726562 28.265625 -30.21875 C 25.660156 -30.59375 22.75 -30.941406 19.53125 -31.265625 C 16.3125 -31.585938 13.078125 -31.75 9.828125 -31.75 L 8.125 -31.75 C 8.125 -30.1875 8.203125 -28.644531 8.359375 -27.125 C 8.523438 -25.613281 8.828125 -24.125 9.265625 -22.65625 C 10.453125 -18.113281 12.34375 -14.320312 14.9375 -11.28125 C 17.539062 -8.25 20.453125 -5.945312 23.671875 -4.375 C 26.890625 -2.8125 30.242188 -1.960938 33.734375 -1.828125 C 37.234375 -1.691406 40.523438 -2.269531 43.609375 -3.5625 C 46.703125 -4.863281 49.394531 -6.84375 51.6875 -9.5 C 53.988281 -12.15625 55.546875 -15.515625 56.359375 -19.578125 L 57.09375 -19.40625 C 56.226562 -15.019531 54.46875 -11.351562 51.8125 -8.40625 C 49.164062 -5.457031 46.066406 -3.265625 42.515625 -1.828125 C 38.972656 -0.390625 35.179688 0.296875 31.140625 0.234375 C 27.109375 0.179688 23.25 -0.640625 19.5625 -2.234375 C 15.882812 -3.828125 12.597656 -6.191406 9.703125 -9.328125 C 6.804688 -12.472656 4.738281 -16.398438 3.5 -21.109375 Z M 3.5 -21.109375 "/></g></g></g><g fill="#fff1d0" fill-opacity="1"><g transform="translate(60.749236, 61.386406)"><g><path d="M 66.109375 -57.015625 L 66.109375 -56.28125 C 66.003906 -56.28125 65.84375 -56.195312 65.625 -56.03125 C 65.40625 -55.875 65.1875 -55.578125 64.96875 -55.140625 C 64.757812 -54.710938 64.585938 -54.09375 64.453125 -53.28125 C 64.316406 -52.46875 64.25 -51.382812 64.25 -50.03125 L 64.25 -6.984375 C 64.25 -5.679688 64.316406 -4.609375 64.453125 -3.765625 C 64.585938 -2.929688 64.757812 -2.296875 64.96875 -1.859375 C 65.1875 -1.429688 65.40625 -1.132812 65.625 -0.96875 C 65.84375 -0.8125 66.003906 -0.734375 66.109375 -0.734375 L 66.109375 0 L 56.53125 0 L 56.53125 -0.734375 C 56.632812 -0.734375 56.796875 -0.8125 57.015625 -0.96875 C 57.234375 -1.132812 57.4375 -1.429688 57.625 -1.859375 C 57.8125 -2.296875 57.984375 -2.929688 58.140625 -3.765625 C 58.304688 -4.609375 58.390625 -5.679688 58.390625 -6.984375 L 58.390625 -55.3125 L 34.03125 -4.796875 L 36.3125 0 L 29.890625 0 L 6.25 -49.140625 L 6.25 -13.3125 C 6.25 -11.425781 6.359375 -9.707031 6.578125 -8.15625 C 6.796875 -6.613281 7.050781 -5.285156 7.34375 -4.171875 C 7.644531 -3.066406 7.972656 -2.21875 8.328125 -1.625 C 8.679688 -1.03125 9.019531 -0.734375 9.34375 -0.734375 L 9.34375 0 L 2.4375 0 L 2.4375 -0.734375 C 2.757812 -0.734375 3.097656 -1.03125 3.453125 -1.625 C 3.804688 -2.21875 4.128906 -3.066406 4.421875 -4.171875 C 4.722656 -5.285156 4.976562 -6.613281 5.1875 -8.15625 C 5.40625 -9.707031 5.515625 -11.425781 5.515625 -13.3125 L 5.515625 -50.59375 L 2.4375 -57.015625 L 8.859375 -57.015625 L 33.625 -5.609375 L 58.390625 -57.015625 Z M 66.109375 -57.015625 "/></g></g></g><g fill="#fff1d0" fill-opacity="1"><g transform="translate(129.297835, 61.386406)"><g><path d="M 66.109375 -57.015625 L 66.109375 -56.28125 C 66.003906 -56.28125 65.84375 -56.195312 65.625 -56.03125 C 65.40625 -55.875 65.1875 -55.578125 64.96875 -55.140625 C 64.757812 -54.710938 64.585938 -54.09375 64.453125 -53.28125 C 64.316406 -52.46875 64.25 -51.382812 64.25 -50.03125 L 64.25 -6.984375 C 64.25 -5.679688 64.316406 -4.609375 64.453125 -3.765625 C 64.585938 -2.929688 64.757812 -2.296875 64.96875 -1.859375 C 65.1875 -1.429688 65.40625 -1.132812 65.625 -0.96875 C 65.84375 -0.8125 66.003906 -0.734375 66.109375 -0.734375 L 66.109375 0 L 56.53125 0 L 56.53125 -0.734375 C 56.632812 -0.734375 56.796875 -0.8125 57.015625 -0.96875 C 57.234375 -1.132812 57.4375 -1.429688 57.625 -1.859375 C 57.8125 -2.296875 57.984375 -2.929688 58.140625 -3.765625 C 58.304688 -4.609375 58.390625 -5.679688 58.390625 -6.984375 L 58.390625 -55.3125 L 34.03125 -4.796875 L 36.3125 0 L 29.890625 0 L 6.25 -49.140625 L 6.25 -13.3125 C 6.25 -11.425781 6.359375 -9.707031 6.578125 -8.15625 C 6.796875 -6.613281 7.050781 -5.285156 7.34375 -4.171875 C 7.644531 -3.066406 7.972656 -2.21875 8.328125 -1.625 C 8.679688 -1.03125 9.019531 -0.734375 9.34375 -0.734375 L 9.34375 0 L 2.4375 0 L 2.4375 -0.734375 C 2.757812 -0.734375 3.097656 -1.03125 3.453125 -1.625 C 3.804688 -2.21875 4.128906 -3.066406 4.421875 -4.171875 C 4.722656 -5.285156 4.976562 -6.613281 5.1875 -8.15625 C 5.40625 -9.707031 5.515625 -11.425781 5.515625 -13.3125 L 5.515625 -50.59375 L 2.4375 -57.015625 L 8.859375 -57.015625 L 33.625 -5.609375 L 58.390625 -57.015625 Z M 66.109375 -57.015625 "/></g></g></g><g fill="#fff1d0" fill-opacity="1"><g transform="translate(197.846434, 61.386406)"><g><path d="M 37.359375 -10.640625 C 36.765625 -12.421875 35.96875 -14.164062 34.96875 -15.875 C 33.96875 -17.582031 32.789062 -19.113281 31.4375 -20.46875 C 30.082031 -21.820312 28.5625 -22.941406 26.875 -23.828125 C 25.195312 -24.722656 23.359375 -25.28125 21.359375 -25.5 C 20.597656 -25.550781 19.8125 -25.535156 19 -25.453125 C 18.1875 -25.378906 17.398438 -25.207031 16.640625 -24.9375 C 15.890625 -24.664062 15.203125 -24.285156 14.578125 -23.796875 C 13.953125 -23.304688 13.503906 -22.65625 13.234375 -21.84375 L 9.265625 -9.984375 C 8.179688 -6.898438 7.648438 -4.585938 7.671875 -3.046875 C 7.703125 -1.503906 8.257812 -0.734375 9.34375 -0.734375 L 9.34375 0 L 2.4375 0 L 2.4375 -0.734375 C 2.757812 -0.734375 3.132812 -0.878906 3.5625 -1.171875 C 4 -1.472656 4.472656 -1.988281 4.984375 -2.71875 C 5.503906 -3.445312 6.0625 -4.421875 6.65625 -5.640625 C 7.25 -6.859375 7.875 -8.390625 8.53125 -10.234375 L 22.984375 -52.546875 L 21.4375 -57.015625 L 27.609375 -57.015625 L 43.125 -11.78125 C 43.664062 -10.257812 44.191406 -8.820312 44.703125 -7.46875 C 45.222656 -6.113281 45.710938 -4.9375 46.171875 -3.9375 C 46.628906 -2.9375 47.046875 -2.148438 47.421875 -1.578125 C 47.804688 -1.015625 48.160156 -0.734375 48.484375 -0.734375 L 48.484375 0 L 38.984375 0 L 38.984375 -0.734375 C 39.253906 -0.734375 39.347656 -1.488281 39.265625 -3 C 39.179688 -4.519531 38.765625 -6.414062 38.015625 -8.6875 Z M 14.125 -24.28125 C 15.050781 -25.144531 16.191406 -25.695312 17.546875 -25.9375 C 18.898438 -26.1875 20.171875 -26.257812 21.359375 -26.15625 C 24.441406 -25.882812 27.144531 -24.851562 29.46875 -23.0625 C 31.800781 -21.28125 33.753906 -19.144531 35.328125 -16.65625 L 23.390625 -51.40625 Z M 14.125 -24.28125 "/></g></g></g></g></g><path stroke-linecap="butt" transform="matrix(0.75, 0, 0, 0.75, 72.320911, 225.598414)" fill="none" stroke-linejoin="miter" d="M -0.000798392 0.498989 L 207.145052 0.498989 " stroke="#fff1d0" stroke-width="1" stroke-opacity="1" stroke-miterlimit="4"/><path stroke-linecap="butt" transform="matrix(0.75, -0.000000000000000093, 0.000000000000000093, 0.75, 72.820906, 67.657794)" fill="none" stroke-linejoin="miter" d="M -0.000790871 0.497941 L 207.145059 0.497941 " stroke="#fff1d0" stroke-width="1" stroke-opacity="1" stroke-miterlimit="4"/><path stroke-linecap="butt" transform="matrix(0, -0.75, 0.75, 0, 72.445042, 225.97255)" fill="none" stroke-linejoin="miter" d="M -0.000141206 0.500361 L 37.671737 0.500361 " stroke="#fff1d0" stroke-width="1" stroke-opacity="1" stroke-miterlimit="4"/><path stroke-linecap="butt" transform="matrix(0, -0.75, 0.75, 0, 226.803211, 225.97255)" fill="none" stroke-linejoin="miter" d="M -0.000141206 0.501969 L 37.671737 0.501969 " stroke="#fff1d0" stroke-width="1" stroke-opacity="1" stroke-miterlimit="4"/><path stroke-linecap="butt" transform="matrix(0, -0.75, 0.75, 0, 72.945043, 96.287555)" fill="none" stroke-linejoin="miter" d="M -0.00200955 0.500359 L 37.675077 0.500359 " stroke="#fff1d0" stroke-width="1" stroke-opacity="1" stroke-miterlimit="4"/><path stroke-linecap="butt" transform="matrix(0, -0.75, 0.75, 0, 227.803214, 96.287555)" fill="none" stroke-linejoin="miter" d="M -0.00200955 0.501965 L 37.675077 0.501965 " stroke="#fff1d0" stroke-width="1" stroke-opacity="1" stroke-miterlimit="4"/><g fill="#fff1d0" fill-opacity="1"><g transform="translate(126.970265, 192.622616)"><g><path d="M 4.875 -8.4375 C 6.300781 -8.4375 7.425781 -8.054688 8.25 -7.296875 C 9.082031 -6.546875 9.5 -5.519531 9.5 -4.21875 C 9.5 -2.914062 9.082031 -1.882812 8.25 -1.125 C 7.425781 -0.375 6.300781 0 4.875 0 L 0.5 0 L 0.5 -0.125 L 0.65625 -0.125 C 0.863281 -0.125 1.039062 -0.195312 1.1875 -0.34375 C 1.34375 -0.488281 1.425781 -0.664062 1.4375 -0.875 L 1.4375 -7.625 C 1.4375 -7.820312 1.359375 -7.984375 1.203125 -8.109375 C 1.046875 -8.242188 0.863281 -8.3125 0.65625 -8.3125 L 0.5 -8.3125 L 0.5 -8.4375 Z M 4.71875 -0.515625 C 5.300781 -0.515625 5.800781 -0.660156 6.21875 -0.953125 C 6.644531 -1.253906 6.96875 -1.679688 7.1875 -2.234375 C 7.414062 -2.796875 7.53125 -3.40625 7.53125 -4.0625 C 7.53125 -4.726562 7.460938 -5.289062 7.328125 -5.75 C 7.191406 -6.207031 7.003906 -6.597656 6.765625 -6.921875 C 6.265625 -7.585938 5.582031 -7.921875 4.71875 -7.921875 L 3.234375 -7.921875 L 3.234375 -0.515625 Z M 4.71875 -0.515625 "/></g></g></g><g fill="#fff1d0" fill-opacity="1"><g transform="translate(146.574107, 192.622616)"><g><path d="M 0.65625 -0.125 C 0.863281 -0.125 1.039062 -0.195312 1.1875 -0.34375 C 1.34375 -0.488281 1.425781 -0.664062 1.4375 -0.875 L 1.4375 -7.546875 C 1.425781 -7.753906 1.34375 -7.929688 1.1875 -8.078125 C 1.039062 -8.234375 0.863281 -8.3125 0.65625 -8.3125 L 0.5 -8.3125 L 0.5 -8.4375 L 4.171875 -8.4375 L 4.15625 -8.3125 L 4.015625 -8.3125 C 3.804688 -8.3125 3.625 -8.234375 3.46875 -8.078125 C 3.3125 -7.929688 3.234375 -7.753906 3.234375 -7.546875 L 3.234375 -0.515625 L 4.8125 -0.515625 C 5.40625 -0.515625 5.898438 -0.679688 6.296875 -1.015625 C 6.691406 -1.359375 6.988281 -1.835938 7.1875 -2.453125 L 7.296875 -2.453125 L 6.75 0 L 0.5 0 L 0.5 -0.125 Z M 0.65625 -0.125 "/></g></g></g><g fill="#fff1d0" fill-opacity="1"><g transform="translate(163.626523, 192.622616)"><g><path d="M 5.515625 0.15625 C 3.960938 0.15625 2.742188 -0.234375 1.859375 -1.015625 C 0.984375 -1.796875 0.546875 -2.863281 0.546875 -4.21875 C 0.546875 -5.570312 0.984375 -6.640625 1.859375 -7.421875 C 2.734375 -8.203125 3.929688 -8.59375 5.453125 -8.59375 C 6.617188 -8.59375 7.617188 -8.378906 8.453125 -7.953125 L 8.484375 -5.875 L 8.390625 -5.875 C 7.972656 -7.351562 7.035156 -8.09375 5.578125 -8.09375 C 4.628906 -8.09375 3.878906 -7.75 3.328125 -7.0625 C 2.773438 -6.375 2.5 -5.4375 2.5 -4.25 C 2.5 -3.0625 2.757812 -2.117188 3.28125 -1.421875 C 3.8125 -0.722656 4.53125 -0.363281 5.4375 -0.34375 C 6.363281 -0.34375 7.070312 -0.570312 7.5625 -1.03125 C 8.0625 -1.519531 8.40625 -2.347656 8.59375 -3.515625 L 8.703125 -3.515625 L 8.8125 -1.453125 C 8.164062 -0.367188 7.066406 0.164062 5.515625 0.15625 Z M 5.515625 0.15625 "/></g></g></g></svg>