<svg xmlns="http://www.w3.org/2000/svg" xmlns:xlink="http://www.w3.org/1999/xlink" width="400" zoomAndPan="magnify" viewBox="0 0 300 299.999988" height="400" preserveAspectRatio="xMidYMid meet" version="1.0"><defs><g/></defs><g fill="#fff1d0" fill-opacity="1"><g transform="translate(33.047942, 172.186553)"><g><path d="M 5.421875 -0.75 C 6.703125 -0.75 7.800781 -1.203125 8.71875 -2.109375 C 9.632812 -3.023438 10.117188 -4.128906 10.171875 -5.421875 L 10.171875 -46.984375 C 10.023438 -48.171875 9.503906 -49.171875 8.609375 -49.984375 C 7.722656 -50.804688 6.660156 -51.21875 5.421875 -51.21875 L 4.53125 -51.21875 L 4.453125 -51.96875 L 26.203125 -51.96875 C 27.734375 -51.96875 29.398438 -52.113281 31.203125 -52.40625 C 33.015625 -52.707031 34.289062 -53.003906 35.03125 -53.296875 L 35.03125 -43.953125 L 34.296875 -43.953125 L 34.296875 -45.28125 C 34.296875 -46.46875 33.882812 -47.484375 33.0625 -48.328125 C 32.25 -49.171875 31.273438 -49.613281 30.140625 -49.65625 L 15 -49.65625 L 15 -26.71875 L 27.546875 -26.71875 C 28.535156 -26.769531 29.375 -27.140625 30.0625 -27.828125 C 30.757812 -28.523438 31.109375 -29.394531 31.109375 -30.4375 L 31.109375 -31.46875 L 31.84375 -31.46875 L 31.84375 -19.75 L 31.109375 -19.75 L 31.109375 -20.859375 C 31.109375 -21.847656 30.769531 -22.6875 30.09375 -23.375 C 29.425781 -24.070312 28.597656 -24.445312 27.609375 -24.5 L 15 -24.5 L 15 -2.296875 L 25.609375 -2.296875 C 29.273438 -2.296875 32.070312 -3.113281 34 -4.75 C 35.925781 -6.382812 37.535156 -8.8125 38.828125 -12.03125 L 39.5625 -12.03125 L 35.265625 0 L 4.453125 0 L 4.453125 -0.75 Z M 5.421875 -0.75 "/></g></g></g><g fill="#fff1d0" fill-opacity="1"><g transform="translate(75.876662, 172.186553)"><g><path d="M 66.8125 -0.75 L 68 -0.75 L 68 0 L 51.890625 0 L 51.890625 -0.671875 L 53 -0.671875 C 53.84375 -0.671875 54.5625 -1.003906 55.15625 -1.671875 C 55.75 -2.335938 56 -3.066406 55.90625 -3.859375 L 52.5625 -41.203125 L 36.96875 -6.53125 C 35.582031 -3.507812 34.738281 -0.984375 34.4375 1.046875 L 33.703125 1.046875 L 14.703125 -40.15625 L 11.5 -3.859375 C 11.40625 -3.066406 11.65625 -2.335938 12.25 -1.671875 C 12.84375 -1.003906 13.535156 -0.671875 14.328125 -0.671875 L 15.515625 -0.671875 L 15.515625 0 L 1.109375 0 L 1.109375 -0.75 L 2.296875 -0.75 C 3.679688 -0.75 4.878906 -1.164062 5.890625 -2 C 6.910156 -2.84375 7.519531 -3.984375 7.71875 -5.421875 L 13.28125 -53 L 14.03125 -53 L 34.734375 -8.234375 L 55 -53 L 55.671875 -53 L 61.390625 -5.421875 C 61.640625 -3.441406 62.628906 -2.054688 64.359375 -1.265625 C 65.097656 -0.921875 65.914062 -0.75 66.8125 -0.75 Z M 66.8125 -0.75 "/></g></g></g><g fill="#fff1d0" fill-opacity="1"><g transform="translate(144.981588, 172.186553)"><g><path d="M 66.8125 -0.75 L 68 -0.75 L 68 0 L 51.890625 0 L 51.890625 -0.671875 L 53 -0.671875 C 53.84375 -0.671875 54.5625 -1.003906 55.15625 -1.671875 C 55.75 -2.335938 56 -3.066406 55.90625 -3.859375 L 52.5625 -41.203125 L 36.96875 -6.53125 C 35.582031 -3.507812 34.738281 -0.984375 34.4375 1.046875 L 33.703125 1.046875 L 14.703125 -40.15625 L 11.5 -3.859375 C 11.40625 -3.066406 11.65625 -2.335938 12.25 -1.671875 C 12.84375 -1.003906 13.535156 -0.671875 14.328125 -0.671875 L 15.515625 -0.671875 L 15.515625 0 L 1.109375 0 L 1.109375 -0.75 L 2.296875 -0.75 C 3.679688 -0.75 4.878906 -1.164062 5.890625 -2 C 6.910156 -2.84375 7.519531 -3.984375 7.71875 -5.421875 L 13.28125 -53 L 14.03125 -53 L 34.734375 -8.234375 L 55 -53 L 55.671875 -53 L 61.390625 -5.421875 C 61.640625 -3.441406 62.628906 -2.054688 64.359375 -1.265625 C 65.097656 -0.921875 65.914062 -0.75 66.8125 -0.75 Z M 66.8125 -0.75 "/></g></g></g><g fill="#fff1d0" fill-opacity="1"><g transform="translate(214.086513, 172.186553)"><g><path d="M 53.15625 -0.75 L 53.75 -0.75 L 53.75 0 L 37.046875 0 L 37.046875 -0.75 L 37.71875 -0.75 C 38.757812 -0.75 39.535156 -1.082031 40.046875 -1.75 C 40.566406 -2.414062 40.828125 -3.046875 40.828125 -3.640625 C 40.828125 -4.234375 40.726562 -4.828125 40.53125 -5.421875 L 35.78125 -18.03125 L 15.734375 -18.03125 L 10.765625 -5.34375 C 10.566406 -4.75 10.46875 -4.164062 10.46875 -3.59375 C 10.46875 -3.03125 10.726562 -2.414062 11.25 -1.75 C 11.769531 -1.082031 12.550781 -0.75 13.59375 -0.75 L 14.25 -0.75 L 14.25 0 L -0.671875 0 L -0.671875 -0.75 L 0 -0.75 C 1.238281 -0.75 2.453125 -1.144531 3.640625 -1.9375 C 4.828125 -2.726562 5.789062 -3.890625 6.53125 -5.421875 L 23.3125 -45.359375 C 25.144531 -49.367188 26.0625 -51.914062 26.0625 -53 L 26.734375 -53 L 46.625 -5.421875 C 47.3125 -3.890625 48.25 -2.726562 49.4375 -1.9375 C 50.625 -1.144531 51.863281 -0.75 53.15625 -0.75 Z M 16.625 -20.265625 L 34.890625 -20.265625 L 25.984375 -44.09375 Z M 16.625 -20.265625 "/></g></g></g><path stroke-linecap="butt" transform="matrix(0.75, 0, 0, 0.75, 72.320911, 225.598414)" fill="none" stroke-linejoin="miter" d="M -0.000798392 0.498989 L 207.145052 0.498989 " stroke="#fff1d0" stroke-width="1" stroke-opacity="1" stroke-miterlimit="4"/><path stroke-linecap="butt" transform="matrix(0.75, -0.000000000000000093, 0.000000000000000093, 0.75, 72.820906, 67.657794)" fill="none" stroke-linejoin="miter" d="M -0.000790871 0.497941 L 207.145059 0.497941 " stroke="#fff1d0" stroke-width="1" stroke-opacity="1" stroke-miterlimit="4"/><path stroke-linecap="butt" transform="matrix(0, -0.75, 0.75, 0, 72.445042, 225.97255)" fill="none" stroke-linejoin="miter" d="M -0.000141206 0.500361 L 37.671737 0.500361 " stroke="#fff1d0" stroke-width="1" stroke-opacity="1" stroke-miterlimit="4"/><path stroke-linecap="butt" transform="matrix(0, -0.75, 0.75, 0, 226.803211, 225.97255)" fill="none" stroke-linejoin="miter" d="M -0.000141206 0.501969 L 37.671737 0.501969 " stroke="#fff1d0" stroke-width="1" stroke-opacity="1" stroke-miterlimit="4"/><path stroke-linecap="butt" transform="matrix(0, -0.75, 0.75, 0, 72.945043, 96.287555)" fill="none" stroke-linejoin="miter" d="M -0.00200955 0.500359 L 37.675077 0.500359 " stroke="#fff1d0" stroke-width="1" stroke-opacity="1" stroke-miterlimit="4"/><path stroke-linecap="butt" transform="matrix(0, -0.75, 0.75, 0, 227.803214, 96.287555)" fill="none" stroke-linejoin="miter" d="M -0.00200955 0.501965 L 37.675077 0.501965 " stroke="#fff1d0" stroke-width="1" stroke-opacity="1" stroke-miterlimit="4"/><g fill="#fff1d0" fill-opacity="1"><g transform="translate(126.970265, 192.622616)"><g><path d="M 4.875 -8.4375 C 6.300781 -8.4375 7.425781 -8.054688 8.25 -7.296875 C 9.082031 -6.546875 9.5 -5.519531 9.5 -4.21875 C 9.5 -2.914062 9.082031 -1.882812 8.25 -1.125 C 7.425781 -0.375 6.300781 0 4.875 0 L 0.5 0 L 0.5 -0.125 L 0.65625 -0.125 C 0.863281 -0.125 1.039062 -0.195312 1.1875 -0.34375 C 1.34375 -0.488281 1.425781 -0.664062 1.4375 -0.875 L 1.4375 -7.625 C 1.4375 -7.820312 1.359375 -7.984375 1.203125 -8.109375 C 1.046875 -8.242188 0.863281 -8.3125 0.65625 -8.3125 L 0.5 -8.3125 L 0.5 -8.4375 Z M 4.71875 -0.515625 C 5.300781 -0.515625 5.800781 -0.660156 6.21875 -0.953125 C 6.644531 -1.253906 6.96875 -1.679688 7.1875 -2.234375 C 7.414062 -2.796875 7.53125 -3.40625 7.53125 -4.0625 C 7.53125 -4.726562 7.460938 -5.289062 7.328125 -5.75 C 7.191406 -6.207031 7.003906 -6.597656 6.765625 -6.921875 C 6.265625 -7.585938 5.582031 -7.921875 4.71875 -7.921875 L 3.234375 -7.921875 L 3.234375 -0.515625 Z M 4.71875 -0.515625 "/></g></g></g><g fill="#fff1d0" fill-opacity="1"><g transform="translate(146.574107, 192.622616)"><g><path d="M 0.65625 -0.125 C 0.863281 -0.125 1.039062 -0.195312 1.1875 -0.34375 C 1.34375 -0.488281 1.425781 -0.664062 1.4375 -0.875 L 1.4375 -7.546875 C 1.425781 -7.753906 1.34375 -7.929688 1.1875 -8.078125 C 1.039062 -8.234375 0.863281 -8.3125 0.65625 -8.3125 L 0.5 -8.3125 L 0.5 -8.4375 L 4.171875 -8.4375 L 4.15625 -8.3125 L 4.015625 -8.3125 C 3.804688 -8.3125 3.625 -8.234375 3.46875 -8.078125 C 3.3125 -7.929688 3.234375 -7.753906 3.234375 -7.546875 L 3.234375 -0.515625 L 4.8125 -0.515625 C 5.40625 -0.515625 5.898438 -0.679688 6.296875 -1.015625 C 6.691406 -1.359375 6.988281 -1.835938 7.1875 -2.453125 L 7.296875 -2.453125 L 6.75 0 L 0.5 0 L 0.5 -0.125 Z M 0.65625 -0.125 "/></g></g></g><g fill="#fff1d0" fill-opacity="1"><g transform="translate(163.626523, 192.622616)"><g><path d="M 5.515625 0.15625 C 3.960938 0.15625 2.742188 -0.234375 1.859375 -1.015625 C 0.984375 -1.796875 0.546875 -2.863281 0.546875 -4.21875 C 0.546875 -5.570312 0.984375 -6.640625 1.859375 -7.421875 C 2.734375 -8.203125 3.929688 -8.59375 5.453125 -8.59375 C 6.617188 -8.59375 7.617188 -8.378906 8.453125 -7.953125 L 8.484375 -5.875 L 8.390625 -5.875 C 7.972656 -7.351562 7.035156 -8.09375 5.578125 -8.09375 C 4.628906 -8.09375 3.878906 -7.75 3.328125 -7.0625 C 2.773438 -6.375 2.5 -5.4375 2.5 -4.25 C 2.5 -3.0625 2.757812 -2.117188 3.28125 -1.421875 C 3.8125 -0.722656 4.53125 -0.363281 5.4375 -0.34375 C 6.363281 -0.34375 7.070312 -0.570312 7.5625 -1.03125 C 8.0625 -1.519531 8.40625 -2.347656 8.59375 -3.515625 L 8.703125 -3.515625 L 8.8125 -1.453125 C 8.164062 -0.367188 7.066406 0.164062 5.515625 0.15625 Z M 5.515625 0.15625 "/></g></g></g></svg>